<svg xmlns="http://www.w3.org/2000/svg" xmlns:xlink="http://www.w3.org/1999/xlink" contentStyleType="text/css" data-diagram-type="CLASS" height="458px" preserveAspectRatio="none" style="width:400px;height:458px;background:#FFFFFF;" version="1.1" viewBox="0 0 400 458" width="400px" zoomAndPan="magnify"><defs/><g><!--class User--><g class="entity" data-entity="User" data-source-line="1" data-uid="ent0002" id="entity_User"><rect fill="#F1F1F1" height="96.8906" rx="2.5" ry="2.5" style="stroke:#181818;stroke-width:0.5;" width="139.2373" x="46.74" y="15.15"/><ellipse cx="96.1536" cy="31.15" fill="#ADD1B2" rx="11" ry="11" style="stroke:#181818;stroke-width:1;"/><path d="M100.2629,37.15 L92.5442,37.15 L92.5442,24.7594 L100.2629,24.7594 L100.2629,26.9156 L94.9973,26.9156 L94.9973,29.5875 L99.7629,29.5875 L99.7629,31.7438 L94.9973,31.7438 L94.9973,34.9938 L100.2629,34.9938 L100.2629,37.15 Z " fill="#000000"/><text fill="#000000" font-family="sans-serif" font-size="14" lengthAdjust="spacing" textLength="31.9102" x="116.6536" y="35.9967">User</text><line style="stroke:#181818;stroke-width:0.5;" x1="47.74" x2="184.9773" y1="47.15" y2="47.15"/><ellipse cx="57.74" cy="60.7984" fill="#000000" rx="3" ry="3" style="stroke:#000000;stroke-width:1;"/><text fill="#000000" font-family="sans-serif" font-size="14" lengthAdjust="spacing" textLength="99.7227" x="66.74" y="64.1451">id : Long &#171;PK&#187;</text><line style="stroke:#181818;stroke-width:1;" x1="47.74" x2="184.9773" y1="71.4469" y2="71.4469"/><text fill="#000000" font-family="sans-serif" font-size="14" lengthAdjust="spacing" textLength="127.2373" x="52.74" y="88.442">userName : String</text><text fill="#000000" font-family="sans-serif" font-size="14" lengthAdjust="spacing" textLength="122.1104" x="52.74" y="104.7389">password : String</text></g><!--class BookRaitingComposite--><g class="entity" data-entity="BookRaitingComposite" data-source-line="8" data-uid="ent0003" id="entity_BookRaitingComposite"><rect fill="#F1F1F1" height="80.5938" rx="2.5" ry="2.5" style="stroke:#181818;stroke-width:0.5;" width="190.8945" x="104.92" y="197.19"/><ellipse cx="119.92" cy="213.19" fill="#ADD1B2" rx="11" ry="11" style="stroke:#181818;stroke-width:1;"/><path d="M124.0294,219.19 L116.3106,219.19 L116.3106,206.7994 L124.0294,206.7994 L124.0294,208.9556 L118.7638,208.9556 L118.7638,211.6275 L123.5294,211.6275 L123.5294,213.7838 L118.7638,213.7838 L118.7638,217.0338 L124.0294,217.0338 L124.0294,219.19 Z " fill="#000000"/><text fill="#000000" font-family="sans-serif" font-size="14" lengthAdjust="spacing" textLength="158.8945" x="133.92" y="218.0367">BookRaitingComposite</text><line style="stroke:#181818;stroke-width:0.5;" x1="105.92" x2="294.8145" y1="229.19" y2="229.19"/><text fill="#000000" font-family="sans-serif" font-size="14" lengthAdjust="spacing" textLength="130.1084" x="110.92" y="246.1851">userId : Long &#171;FK&#187;</text><text fill="#000000" font-family="sans-serif" font-size="14" lengthAdjust="spacing" textLength="133.6973" x="110.92" y="262.482">bookId : Long &#171;FK&#187;</text><line style="stroke:#181818;stroke-width:0.5;" x1="105.92" x2="294.8145" y1="269.7838" y2="269.7838"/></g><!--class BookRaiting--><g class="entity" data-entity="BookRaiting" data-source-line="14" data-uid="ent0004" id="entity_BookRaiting"><rect fill="#F1F1F1" height="96.8906" rx="2.5" ry="2.5" style="stroke:#181818;stroke-width:0.5;" width="386.7256" x="7" y="354.78"/><ellipse cx="154.0239" cy="370.78" fill="#ADD1B2" rx="11" ry="11" style="stroke:#181818;stroke-width:1;"/><path d="M158.1333,376.78 L150.4146,376.78 L150.4146,364.3894 L158.1333,364.3894 L158.1333,366.5456 L152.8677,366.5456 L152.8677,369.2175 L157.6333,369.2175 L157.6333,371.3738 L152.8677,371.3738 L152.8677,374.6238 L158.1333,374.6238 L158.1333,376.78 Z " fill="#000000"/><text fill="#000000" font-family="sans-serif" font-size="14" lengthAdjust="spacing" textLength="84.1777" x="174.5239" y="375.6267">BookRaiting</text><line style="stroke:#181818;stroke-width:0.5;" x1="8" x2="392.7256" y1="386.78" y2="386.78"/><ellipse cx="18" cy="400.4284" fill="#000000" rx="3" ry="3" style="stroke:#000000;stroke-width:1;"/><text fill="#000000" font-family="sans-serif" font-size="14" lengthAdjust="spacing" textLength="360.7256" x="27" y="403.7751">bookRaitingComposite BookRaitingComposite &#171;PK&#187;</text><line style="stroke:#181818;stroke-width:1;" x1="8" x2="392.7256" y1="411.0769" y2="411.0769"/><text fill="#000000" font-family="sans-serif" font-size="14" lengthAdjust="spacing" textLength="85.9346" x="13" y="428.072">user : String</text><text fill="#000000" font-family="sans-serif" font-size="14" lengthAdjust="spacing" textLength="60.3066" x="13" y="444.3689">rate : int</text></g><!--class Book--><g class="entity" data-entity="Book" data-source-line="23" data-uid="ent0005" id="entity_Book"><rect fill="#F1F1F1" height="113.1875" rx="2.5" ry="2.5" style="stroke:#181818;stroke-width:0.5;" width="125.9619" x="221.38" y="7"/><ellipse cx="262.9836" cy="23" fill="#ADD1B2" rx="11" ry="11" style="stroke:#181818;stroke-width:1;"/><path d="M267.093,29 L259.3742,29 L259.3742,16.6094 L267.093,16.6094 L267.093,18.7656 L261.8274,18.7656 L261.8274,21.4375 L266.593,21.4375 L266.593,23.5938 L261.8274,23.5938 L261.8274,26.8438 L267.093,26.8438 L267.093,29 Z " fill="#000000"/><text fill="#000000" font-family="sans-serif" font-size="14" lengthAdjust="spacing" textLength="34.8428" x="282.8955" y="27.8467">Book</text><line style="stroke:#181818;stroke-width:0.5;" x1="222.38" x2="346.3419" y1="39" y2="39"/><ellipse cx="232.38" cy="52.6484" fill="#000000" rx="3" ry="3" style="stroke:#000000;stroke-width:1;"/><text fill="#000000" font-family="sans-serif" font-size="14" lengthAdjust="spacing" textLength="99.9619" x="241.38" y="55.9951">Id : Long &#171;PK&#187;</text><line style="stroke:#181818;stroke-width:1;" x1="222.38" x2="346.3419" y1="63.2969" y2="63.2969"/><text fill="#000000" font-family="sans-serif" font-size="14" lengthAdjust="spacing" textLength="101.5342" x="227.38" y="80.292">author : String</text><text fill="#000000" font-family="sans-serif" font-size="14" lengthAdjust="spacing" textLength="82.7695" x="227.38" y="96.5889">title : String</text><text fill="#000000" font-family="sans-serif" font-size="14" lengthAdjust="spacing" textLength="109.5869" x="227.38" y="112.8857">imgURL : String</text></g><!--link User to BookRaitingComposite--><g class="link" data-entity-1="User" data-entity-2="BookRaitingComposite" data-source-line="33" data-uid="lnk6" id="link_User_BookRaitingComposite"><path codeLine="33" d="M143.2714,119.6582 C156.2314,146.1882 160.7473,155.4076 173.0173,180.5176 " fill="none" id="User-BookRaitingComposite" style="stroke:#181818;stroke-width:1;stroke-dasharray:7.0,7.0;"/><line style="stroke:#181818;stroke-width:1;" x1="137.9216" x2="145.1098" y1="117.8198" y2="114.3084"/><line style="stroke:#181818;stroke-width:1;" x1="139.2384" x2="146.4266" y1="120.5154" y2="117.0039"/><line style="stroke:#181818;stroke-width:1;" x1="143.2714" x2="139.76" y1="119.6582" y2="112.47"/><line style="stroke:#181818;stroke-width:1;" x1="177.4077" x2="186.3108" y1="189.5022" y2="194.0558"/><line style="stroke:#181818;stroke-width:1;" x1="177.4077" x2="175.5292" y1="189.5022" y2="199.3242"/><line style="stroke:#181818;stroke-width:1;" x1="177.4077" x2="180.92" y1="189.5022" y2="196.69"/><ellipse cx="174.7735" cy="184.1114" fill="none" rx="4" ry="4" style="stroke:#181818;stroke-width:1;"/><text fill="#000000" font-family="sans-serif" font-size="13" lengthAdjust="spacing" textLength="33.1792" x="167.36" y="163.2569">rates</text></g><!--link Book to BookRaitingComposite--><g class="link" data-entity-1="Book" data-entity-2="BookRaitingComposite" data-source-line="36" data-uid="lnk7" id="link_Book_BookRaitingComposite"><path codeLine="36" d="M253.5771,127.5875 C241.4071,152.4875 238.774,157.8882 227.694,180.5582 " fill="none" id="Book-BookRaitingComposite" style="stroke:#181818;stroke-width:1;stroke-dasharray:7.0,7.0;"/><line style="stroke:#181818;stroke-width:1;" x1="251.7398" x2="258.9273" y1="122.2373" y2="125.7502"/><line style="stroke:#181818;stroke-width:1;" x1="250.4225" x2="257.6099" y1="124.9326" y2="128.4455"/><line style="stroke:#181818;stroke-width:1;" x1="253.5771" x2="257.09" y1="127.5875" y2="120.4"/><line style="stroke:#181818;stroke-width:1;" x1="223.3029" x2="225.1806" y1="189.5425" y2="199.3647"/><line style="stroke:#181818;stroke-width:1;" x1="223.3029" x2="214.3994" y1="189.5425" y2="194.0953"/><line style="stroke:#181818;stroke-width:1;" x1="223.3029" x2="219.79" y1="189.5425" y2="196.73"/><ellipse cx="225.9375" cy="184.1519" fill="none" rx="4" ry="4" style="stroke:#181818;stroke-width:1;"/><text fill="#000000" font-family="sans-serif" font-size="13" lengthAdjust="spacing" textLength="54.5645" x="243.36" y="163.2569">receives</text></g><!--link BookRaitingComposite to BookRaiting--><g class="link" data-entity-1="BookRaitingComposite" data-entity-2="BookRaiting" data-source-line="39" data-uid="lnk8" id="link_BookRaitingComposite_BookRaiting"><path codeLine="39" d="M200.36,278.12 C200.36,301.12 200.36,330.24 200.36,354.5 " fill="none" id="BookRaitingComposite-BookRaiting" style="stroke:#181818;stroke-width:1;"/><text fill="#000000" font-family="sans-serif" font-size="13" lengthAdjust="spacing" textLength="86.0996" x="201.36" y="320.8469">Embedded Id</text><text fill="#000000" font-family="sans-serif" font-size="13" lengthAdjust="spacing" textLength="8.271" x="191.7429" y="297.8687">1</text><text fill="#000000" font-family="sans-serif" font-size="13" lengthAdjust="spacing" textLength="8.271" x="191.8162" y="343.6695">1</text></g><!--SRC=[XP7HQW8n44NVynN3lXG4XRuk8hIbXQLIHF434ZDiqpQ9955PLl-ziucrkpN5boJSJEwvCq4JL6YWM7jq1N0FtG5Q1Z1I4agOMrF3TBfudSr86uzfsL756zT8jwlWbAb9stBl3zR9N-t469wz7wtzN78LI7woUckz2XXPkOlsJAXwz9T45rH-9HCd1_hhdreI6M0sHQRbVhkEXwvzPKBa3m9So0bP_JD5lWllTc1A5b-3eIfThvVpmKZP7JoaD1jkOWmFcfi67EuL7ZoBttSyJYQspJTMfbVa53DsDWAZ9a4qoQm3U62nu8ONRb3jBtPN5S721qeq87yElJAMVLBS5pIXkFN_huHdBL1AYbd9Rm00]--></g></svg>